{"accessors" : [{"bufferView" : 0, "byteOffset" : 0, "componentType" : 5123, "count" : 1758, "type" : "SCALAR", "max" : [1173], "min" : [0]}, {"bufferView" : 1, "byteOffset" : 0, "componentType" : 5126, "count" : 1174, "type" : "VEC3", "max" : [1.2856568098068237, 1.089124321937561, 3.999999523162842], "min" : [-1.2856569290161133, -1.2856569290161133, -3.999999523162842], "name" : "POSITION"}, {"bufferView" : 1, "byteOffset" : 12, "componentType" : 5126, "count" : 1174, "type" : "VEC3", "max" : [1.0000044107437134, 1.0000044107437134, 0.9655894041061401], "min" : [-1.0000044107437134, -1.0000044107437134, -0.9655895233154297], "name" : "NORMAL"}, {"bufferView" : 1, "byteOffset" : 24, "componentType" : 5126, "count" : 1174, "type" : "VEC2", "max" : [0.9612807035446167, 0.980074942111969], "min" : [0.46156537532806396, 0.46593302488327026], "name" : "TEXCOORD_0"}, {"bufferView" : 0, "byteOffset" : 3516, "componentType" : 5123, "count" : 258, "type" : "SCALAR", "max" : [173], "min" : [0]}, {"bufferView" : 2, "byteOffset" : 0, "componentType" : 5126, "count" : 174, "type" : "VEC3", "max" : [1.0401183366775513, 1.1855483055114746, -1.8057082891464233], "min" : [-1.0401175022125244, 0.6110575795173645, -3.999999523162842], "name" : "POSITION"}, {"bufferView" : 2, "byteOffset" : 12, "componentType" : 5126, "count" : 174, "type" : "VEC3", "max" : [1.0000044107437134, 1.0000044107437134, 0.9655892252922058], "min" : [-1.0000044107437134, -1.0000044107437134, -0.9655885100364685], "name" : "NORMAL"}, {"bufferView" : 2, "byteOffset" : 24, "componentType" : 5126, "count" : 174, "type" : "VEC2", "max" : [0.884688675403595, 0.980074942111969], "min" : [0.5247976183891296, 0.7233614921569824], "name" : "TEXCOORD_0"}, {"bufferView" : 0, "byteOffset" : 4032, "componentType" : 5123, "count" : 2289, "type" : "SCALAR", "max" : [1576], "min" : [0]}, {"bufferView" : 3, "byteOffset" : 0, "componentType" : 5126, "count" : 1577, "type" : "VEC3", "max" : [0.9999394416809082, 1.0004401206970215, 0.949845552444458], "min" : [-1.000060796737671, -0.9995594024658203, -0.793936014175415], "name" : "POSITION"}, {"bufferView" : 3, "byteOffset" : 12, "componentType" : 5126, "count" : 1577, "type" : "VEC3", "max" : [1.0000044107437134, 1.0000044107437134, 1.0000044107437134], "min" : [-1.0000044107437134, -1.0000044107437134, -0.9994491338729858], "name" : "NORMAL"}, {"bufferView" : 3, "byteOffset" : 24, "componentType" : 5126, "count" : 1577, "type" : "VEC2", "max" : [0.6513203978538513, 0.9736608266830444], "min" : [0.01175952423363924, 0.017358779907226562], "name" : "TEXCOORD_0"}, {"bufferView" : 0, "byteOffset" : 8612, "componentType" : 5123, "count" : 1152, "type" : "SCALAR", "max" : [767], "min" : [0]}, {"bufferView" : 4, "byteOffset" : 0, "componentType" : 5126, "count" : 768, "type" : "VEC3", "max" : [0.14000003039836884, 0.2725870609283447, 0.009999999776482582], "min" : [-0.13999997079372406, -0.007412925362586975, -0.009999999776482582], "name" : "POSITION"}, {"bufferView" : 4, "byteOffset" : 12, "componentType" : 5126, "count" : 768, "type" : "VEC3", "max" : [1.0000044107437134, 1.0000044107437134, 0.9994975328445435], "min" : [-1.0000044107437134, -1.0000044107437134, -0.9994975328445435], "name" : "NORMAL"}, {"bufferView" : 4, "byteOffset" : 24, "componentType" : 5126, "count" : 768, "type" : "VEC2", "max" : [0.9873950481414795, 0.9922257661819458], "min" : [0.9575574994087219, 0.6300506591796875], "name" : "TEXCOORD_0"}, {"bufferView" : 0, "byteOffset" : 10916, "componentType" : 5123, "count" : 252, "type" : "SCALAR", "max" : [167], "min" : [0]}, {"bufferView" : 5, "byteOffset" : 0, "componentType" : 5126, "count" : 168, "type" : "VEC3", "max" : [1.159999966621399, 1.159999966621399, 0.1385640650987625], "min" : [6.34182413250528E-08, -1.071700096130371, -0.1385640650987625], "name" : "POSITION"}, {"bufferView" : 5, "byteOffset" : 12, "componentType" : 5126, "count" : 168, "type" : "VEC3", "max" : [1.0000044107437134, 0.9807921648025513, 0.892905056476593], "min" : [-1.0000044107437134, -0.9807921648025513, -0.892905056476593], "name" : "NORMAL"}, {"bufferView" : 5, "byteOffset" : 24, "componentType" : 5126, "count" : 168, "type" : "VEC2", "max" : [0.9437282681465149, 0.9857808351516724], "min" : [0.8902772068977356, 0.847378671169281], "name" : "TEXCOORD_0"}, {"bufferView" : 0, "byteOffset" : 11420, "componentType" : 5123, "count" : 288, "type" : "SCALAR", "max" : [191], "min" : [0]}, {"bufferView" : 6, "byteOffset" : 0, "componentType" : 5126, "count" : 192, "type" : "VEC3", "max" : [0.7216812968254089, 0.7657783031463623, 0.10099086165428162], "min" : [-0.4026438593864441, -1.0867621898651123, -0.005717771593481302], "name" : "POSITION"}, {"bufferView" : 6, "byteOffset" : 12, "componentType" : 5126, "count" : 192, "type" : "VEC3", "max" : [1.0000038146972656, 1.0000044107437134, 1.0000044107437134], "min" : [-1.0000038146972656, -0.9809667468070984, -1.0000044107437134], "name" : "NORMAL"}, {"bufferView" : 6, "byteOffset" : 24, "componentType" : 5126, "count" : 192, "type" : "VEC2", "max" : [0.9741031527519226, 0.4017341732978821], "min" : [0.7693307399749756, 0.04867810010910034], "name" : "TEXCOORD_0"}, {"bufferView" : 0, "byteOffset" : 11996, "componentType" : 5123, "count" : 60, "type" : "SCALAR", "max" : [39], "min" : [0]}, {"bufferView" : 7, "byteOffset" : 0, "componentType" : 5126, "count" : 40, "type" : "VEC3", "max" : [0.07426391541957855, 0.048235535621643066, 0.019884180277585983], "min" : [-0.0767827033996582, -0.048235535621643066, -0.019884180277585983], "name" : "POSITION"}, {"bufferView" : 7, "byteOffset" : 12, "componentType" : 5126, "count" : 40, "type" : "VEC3", "max" : [0.920954704284668, 1.0000044107437134, 1.0000044107437134], "min" : [-0.920954704284668, -1.0000044107437134, -1.0000042915344238], "name" : "NORMAL"}, {"bufferView" : 7, "byteOffset" : 24, "componentType" : 5126, "count" : 40, "type" : "VEC2", "max" : [0.5102341175079346, 0.9822374582290649], "min" : [0.4129320979118347, 0.8790366649627686], "name" : "TEXCOORD_0"}], "asset" : {"generator" : "Aspose.3D 25.11.0", "version" : "2.0"}, "buffers" : [{"uri" : "data:application/octet-stream;base64,", "byteLength" : 143124}], "bufferViews" : [{"buffer" : 0, "byteOffset" : 0, "byteLength" : 12116, "target" : 34963}, {"buffer" : 0, "byteOffset" : 12120, "byteLength" : 37568, "byteStride" : 32, "target" : 34962}, {"buffer" : 0, "byteOffset" : 49692, "byteLength" : 5568, "byteStride" : 32, "target" : 34962}, {"buffer" : 0, "byteOffset" : 55264, "byteLength" : 50464, "byteStride" : 32, "target" : 34962}, {"buffer" : 0, "byteOffset" : 105732, "byteLength" : 24576, "byteStride" : 32, "target" : 34962}, {"buffer" : 0, "byteOffset" : 130312, "byteLength" : 5376, "byteStride" : 32, "target" : 34962}, {"buffer" : 0, "byteOffset" : 135692, "byteLength" : 6144, "byteStride" : 32, "target" : 34962}, {"buffer" : 0, "byteOffset" : 141840, "byteLength" : 1280, "byteStride" : 32, "target" : 34962}], "materials" : [{"name" : "Tower MAT", "pbrMetallicRoughness" : {"baseColorFactor" : [0.8, 0.8, 0.8, 1], "metallicFactor" : 1, "roughnessFactor" : 1}, "emissiveFactor" : [0, 0, 0], "alphaMode" : "OPAQUE", "doubleSided" : false}, {"name" : "Metal Mat", "pbrMetallicRoughness" : {"baseColorFactor" : [0.8, 0.8, 0.8, 1], "metallicFactor" : 1, "roughnessFactor" : 1}, "emissiveFactor" : [0, 0, 0], "alphaMode" : "OPAQUE", "doubleSided" : false}, {"name" : "Door Mat", "pbrMetallicRoughness" : {"baseColorFactor" : [0.8, 0.8, 0.8, 1], "metallicFactor" : 1, "roughnessFactor" : 1}, "emissiveFactor" : [0, 0, 0], "alphaMode" : "OPAQUE", "doubleSided" : false}], "meshes" : [{"primitives" : [{"attributes" : {"POSITION" : 1, "NORMAL" : 2, "TEXCOORD_0" : 3}, "indices" : 0, "material" : 0, "mode" : 4}, {"attributes" : {"POSITION" : 5, "NORMAL" : 6, "TEXCOORD_0" : 7}, "indices" : 4, "material" : 0, "mode" : 4}], "name" : "Cylinder"}, {"primitives" : [{"attributes" : {"POSITION" : 9, "NORMAL" : 10, "TEXCOORD_0" : 11}, "indices" : 8, "material" : 0, "mode" : 4}], "name" : "Cylinder.001"}, {"primitives" : [{"attributes" : {"POSITION" : 13, "NORMAL" : 14, "TEXCOORD_0" : 15}, "indices" : 12, "material" : 1, "mode" : 4}], "name" : "Torus.001"}, {"primitives" : [{"attributes" : {"POSITION" : 17, "NORMAL" : 18, "TEXCOORD_0" : 19}, "indices" : 16, "material" : 1, "mode" : 4}], "name" : "Torus"}, {"primitives" : [{"attributes" : {"POSITION" : 21, "NORMAL" : 22, "TEXCOORD_0" : 23}, "indices" : 20, "material" : 2, "mode" : 4}], "name" : "Plane.002"}, {"primitives" : [{"attributes" : {"POSITION" : 25, "NORMAL" : 26, "TEXCOORD_0" : 27}, "indices" : 24, "material" : 1, "mode" : 4}], "name" : "Plane.003"}], "nodes" : [{"matrix" : [1.399999976158142, 0, 0, 0, 0, 1.399999976158142, 0, 0, 0, 0, 1.399999976158142, 0, 0, 0, 3.9744439125061035, 1], "mesh" : 1, "name" : "Tower Top"}, {"matrix" : [0.6000000238418579, 0, 0, 0, 0, 0.09282630987193738, -0.5927759313651231, 0, 0, 0.5927759313651231, 0.09282630987193738, 0, -0.29507073760032654, 0.8589116334915161, -3.190643310546875, 1], "mesh" : 2, "name" : "Metal Two"}, {"matrix" : [-4.8446848808313336E-09, 0.029736463745020498, -0.003967691009796528, 0, 4.241201058298027E-09, 0.003967691009797218, 0.029736463745020498, 0, 0.04999999701976661, 7.068668606049007E-09, -8.074475001917323E-09, 0, -0.29269731044769287, 0.8393730521202087, -3.1899001598358154, 1], "mesh" : 3, "name" : "Metal One"}, {"matrix" : [1, 0, 0, 0, 0, -1.6292067955264295E-07, -0.9999999999999867, 0, 0, 0.9999999999999867, -1.6292067955264295E-07, 0, -0.1585320681333542, 0.7426521182060242, -3.234503746032715, 1], "mesh" : 4, "name" : "Door Wood"}, {"matrix" : [1, 0, 0, 0, 0, 1.9470718887765424E-07, 0.999999999999981, 0, 0, -0.999999999999981, 1.9470718887765424E-07, 0, -0.2912302017211914, 0.8303799629211426, -3.189570426940918, 1], "mesh" : 5, "name" : "Door  Metal"}, {"children" : [0, 1, 2, 3, 4], "matrix" : [100, 0, 0, 0, 0, -1.6292067955264296E-05, -99.99999999999866, 0, 0, 99.99999999999866, -1.6292067955264296E-05, 0, 0, 0, 0, 1], "mesh" : 0, "name" : "Tower"}], "scene" : 0, "scenes" : [{"nodes" : [5]}]}